<mxfile host="app.diagrams.net" modified="2023-08-24T03:56:56.102Z" agent="Mozilla/5.0 (Windows NT 10.0; Win64; x64) AppleWebKit/537.36 (KHTML, like Gecko) Chrome/116.0.0.0 Safari/537.36 Edg/116.0.1938.54" etag="9eMLfUBBzTW0r8TBsTpE" version="21.6.8" type="github">
  <diagram name="Page-1" id="KXPsSfKKgLj3HyUOpOCO">
    <mxGraphModel dx="733" dy="412" grid="1" gridSize="20" guides="1" tooltips="1" connect="1" arrows="1" fold="1" page="1" pageScale="1" pageWidth="1600" pageHeight="1200" math="0" shadow="0">
      <root>
        <mxCell id="0" />
        <mxCell id="1" parent="0" />
        <mxCell id="LhzmtkWr15fJtfmwZVZf-1" value="Start" style="ellipse;whiteSpace=wrap;html=1;" parent="1" vertex="1">
          <mxGeometry x="73" y="10" width="87.5" height="50" as="geometry" />
        </mxCell>
        <mxCell id="LhzmtkWr15fJtfmwZVZf-2" value="Initialize &#39;random&#39; object " style="shape=hexagon;perimeter=hexagonPerimeter2;whiteSpace=wrap;html=1;fixedSize=1;" parent="1" vertex="1">
          <mxGeometry x="57" y="90" width="120" height="80" as="geometry" />
        </mxCell>
        <mxCell id="LhzmtkWr15fJtfmwZVZf-3" value="" style="endArrow=classic;html=1;rounded=0;entryX=0.5;entryY=0;entryDx=0;entryDy=0;exitX=0.5;exitY=1;exitDx=0;exitDy=0;" parent="1" source="LhzmtkWr15fJtfmwZVZf-1" target="LhzmtkWr15fJtfmwZVZf-2" edge="1">
          <mxGeometry width="50" height="50" relative="1" as="geometry">
            <mxPoint x="103" y="80" as="sourcePoint" />
            <mxPoint x="153" y="30" as="targetPoint" />
          </mxGeometry>
        </mxCell>
        <mxCell id="LhzmtkWr15fJtfmwZVZf-5" value="" style="endArrow=classic;html=1;rounded=0;entryX=0.5;entryY=0;entryDx=0;entryDy=0;exitX=0.5;exitY=1;exitDx=0;exitDy=0;" parent="1" source="LhzmtkWr15fJtfmwZVZf-2" target="LhzmtkWr15fJtfmwZVZf-13" edge="1">
          <mxGeometry width="50" height="50" relative="1" as="geometry">
            <mxPoint x="103" y="210" as="sourcePoint" />
            <mxPoint x="116.75" y="200" as="targetPoint" />
          </mxGeometry>
        </mxCell>
        <mxCell id="LhzmtkWr15fJtfmwZVZf-9" value="" style="endArrow=classic;html=1;rounded=0;entryX=0.5;entryY=0;entryDx=0;entryDy=0;exitX=0.5;exitY=1;exitDx=0;exitDy=0;" parent="1" source="LhzmtkWr15fJtfmwZVZf-13" target="LhzmtkWr15fJtfmwZVZf-14" edge="1">
          <mxGeometry width="50" height="50" relative="1" as="geometry">
            <mxPoint x="116.74999999999977" y="299" as="sourcePoint" />
            <mxPoint x="116.75" y="319" as="targetPoint" />
          </mxGeometry>
        </mxCell>
        <mxCell id="LhzmtkWr15fJtfmwZVZf-11" value="" style="endArrow=classic;html=1;rounded=0;entryX=0.5;entryY=0;entryDx=0;entryDy=0;exitX=0.5;exitY=1;exitDx=0;exitDy=0;" parent="1" source="LhzmtkWr15fJtfmwZVZf-14" target="LhzmtkWr15fJtfmwZVZf-15" edge="1">
          <mxGeometry width="50" height="50" relative="1" as="geometry">
            <mxPoint x="117" y="380" as="sourcePoint" />
            <mxPoint x="117" y="400" as="targetPoint" />
          </mxGeometry>
        </mxCell>
        <mxCell id="LhzmtkWr15fJtfmwZVZf-13" value="Enter main&lt;br&gt;loop" style="rhombus;whiteSpace=wrap;html=1;" parent="1" vertex="1">
          <mxGeometry x="71.75" y="190" width="90" height="90" as="geometry" />
        </mxCell>
        <mxCell id="LhzmtkWr15fJtfmwZVZf-14" value="Generate a random number (answer) between 1 and 100" style="rounded=0;whiteSpace=wrap;html=1;" parent="1" vertex="1">
          <mxGeometry x="57" y="300" width="120" height="60" as="geometry" />
        </mxCell>
        <mxCell id="LhzmtkWr15fJtfmwZVZf-15" value="Set attempts to 0" style="rounded=0;whiteSpace=wrap;html=1;" parent="1" vertex="1">
          <mxGeometry x="57" y="380" width="120" height="60" as="geometry" />
        </mxCell>
        <mxCell id="LhzmtkWr15fJtfmwZVZf-16" value="Enter guessing loop" style="rhombus;whiteSpace=wrap;html=1;" parent="1" vertex="1">
          <mxGeometry x="66.75" y="460" width="100" height="100" as="geometry" />
        </mxCell>
        <mxCell id="LhzmtkWr15fJtfmwZVZf-17" value="" style="endArrow=classic;html=1;rounded=0;entryX=0.5;entryY=0;entryDx=0;entryDy=0;exitX=0.5;exitY=1;exitDx=0;exitDy=0;" parent="1" source="LhzmtkWr15fJtfmwZVZf-15" target="LhzmtkWr15fJtfmwZVZf-16" edge="1">
          <mxGeometry width="50" height="50" relative="1" as="geometry">
            <mxPoint x="163" y="540" as="sourcePoint" />
            <mxPoint x="213" y="490" as="targetPoint" />
          </mxGeometry>
        </mxCell>
        <mxCell id="LhzmtkWr15fJtfmwZVZf-18" value="&amp;nbsp; Display &quot;Guess a number from 1 to 100: &quot;" style="shape=parallelogram;perimeter=parallelogramPerimeter;whiteSpace=wrap;html=1;fixedSize=1;" parent="1" vertex="1">
          <mxGeometry x="37" y="580" width="160" height="80" as="geometry" />
        </mxCell>
        <mxCell id="LhzmtkWr15fJtfmwZVZf-19" value="" style="endArrow=classic;html=1;rounded=0;entryX=0.5;entryY=0;entryDx=0;entryDy=0;exitX=0.5;exitY=1;exitDx=0;exitDy=0;" parent="1" source="LhzmtkWr15fJtfmwZVZf-16" target="LhzmtkWr15fJtfmwZVZf-18" edge="1">
          <mxGeometry width="50" height="50" relative="1" as="geometry">
            <mxPoint x="127" y="470" as="sourcePoint" />
            <mxPoint x="127" y="490" as="targetPoint" />
          </mxGeometry>
        </mxCell>
        <mxCell id="LhzmtkWr15fJtfmwZVZf-22" value="" style="endArrow=classic;html=1;rounded=0;entryX=0.5;entryY=0;entryDx=0;entryDy=0;exitX=0.5;exitY=1;exitDx=0;exitDy=0;" parent="1" source="LhzmtkWr15fJtfmwZVZf-18" target="LhzmtkWr15fJtfmwZVZf-23" edge="1">
          <mxGeometry width="50" height="50" relative="1" as="geometry">
            <mxPoint x="127" y="590" as="sourcePoint" />
            <mxPoint x="116.75" y="680" as="targetPoint" />
          </mxGeometry>
        </mxCell>
        <mxCell id="LhzmtkWr15fJtfmwZVZf-23" value="&lt;div&gt;Read user input as guess&lt;/div&gt;" style="rounded=0;whiteSpace=wrap;html=1;" parent="1" vertex="1">
          <mxGeometry x="57" y="680" width="120" height="60" as="geometry" />
        </mxCell>
        <mxCell id="LhzmtkWr15fJtfmwZVZf-24" value="Increment attempts by 1" style="rounded=0;whiteSpace=wrap;html=1;" parent="1" vertex="1">
          <mxGeometry x="57" y="760" width="120" height="60" as="geometry" />
        </mxCell>
        <mxCell id="LhzmtkWr15fJtfmwZVZf-25" value="" style="endArrow=classic;html=1;rounded=0;entryX=0.5;entryY=0;entryDx=0;entryDy=0;exitX=0.5;exitY=1;exitDx=0;exitDy=0;" parent="1" source="LhzmtkWr15fJtfmwZVZf-23" target="LhzmtkWr15fJtfmwZVZf-24" edge="1">
          <mxGeometry width="50" height="50" relative="1" as="geometry">
            <mxPoint x="203" y="730" as="sourcePoint" />
            <mxPoint x="253" y="680" as="targetPoint" />
          </mxGeometry>
        </mxCell>
        <mxCell id="LhzmtkWr15fJtfmwZVZf-26" value="Check if guess equals answer" style="rhombus;whiteSpace=wrap;html=1;" parent="1" vertex="1">
          <mxGeometry x="61.75" y="840" width="110" height="110" as="geometry" />
        </mxCell>
        <mxCell id="LhzmtkWr15fJtfmwZVZf-27" value="" style="endArrow=classic;html=1;rounded=0;entryX=0.5;entryY=0;entryDx=0;entryDy=0;exitX=0.5;exitY=1;exitDx=0;exitDy=0;" parent="1" source="LhzmtkWr15fJtfmwZVZf-24" target="LhzmtkWr15fJtfmwZVZf-26" edge="1">
          <mxGeometry width="50" height="50" relative="1" as="geometry">
            <mxPoint x="213" y="760" as="sourcePoint" />
            <mxPoint x="263" y="710" as="targetPoint" />
          </mxGeometry>
        </mxCell>
        <mxCell id="tmRUEUNhHHqaPH-BJBJ0-1" value="" style="endArrow=classic;html=1;rounded=0;exitX=0.5;exitY=1;exitDx=0;exitDy=0;" edge="1" parent="1" source="LhzmtkWr15fJtfmwZVZf-26">
          <mxGeometry width="50" height="50" relative="1" as="geometry">
            <mxPoint x="300" y="1010" as="sourcePoint" />
            <mxPoint x="117" y="980" as="targetPoint" />
          </mxGeometry>
        </mxCell>
        <mxCell id="tmRUEUNhHHqaPH-BJBJ0-2" value="Yes" style="text;html=1;align=center;verticalAlign=middle;resizable=0;points=[];autosize=1;strokeColor=none;fillColor=none;" vertex="1" parent="1">
          <mxGeometry x="71.75" y="940" width="60" height="40" as="geometry" />
        </mxCell>
        <mxCell id="tmRUEUNhHHqaPH-BJBJ0-3" value="Display &quot;Congratulations! &lt;br&gt;You guessed correctly.&quot;" style="shape=parallelogram;perimeter=parallelogramPerimeter;whiteSpace=wrap;html=1;fixedSize=1;" vertex="1" parent="1">
          <mxGeometry x="17" y="980" width="200" height="100" as="geometry" />
        </mxCell>
        <mxCell id="tmRUEUNhHHqaPH-BJBJ0-4" value="Display &quot;Attempts: {attempts}&quot;" style="shape=parallelogram;perimeter=parallelogramPerimeter;whiteSpace=wrap;html=1;fixedSize=1;" vertex="1" parent="1">
          <mxGeometry x="56.75" y="1120" width="120" height="60" as="geometry" />
        </mxCell>
        <mxCell id="tmRUEUNhHHqaPH-BJBJ0-5" value="" style="endArrow=classic;html=1;rounded=0;exitX=0.5;exitY=1;exitDx=0;exitDy=0;entryX=0.5;entryY=0;entryDx=0;entryDy=0;" edge="1" parent="1" source="tmRUEUNhHHqaPH-BJBJ0-3" target="tmRUEUNhHHqaPH-BJBJ0-4">
          <mxGeometry width="50" height="50" relative="1" as="geometry">
            <mxPoint x="420" y="1130" as="sourcePoint" />
            <mxPoint x="470" y="1080" as="targetPoint" />
          </mxGeometry>
        </mxCell>
      </root>
    </mxGraphModel>
  </diagram>
</mxfile>
